PathFileType	3	(X/Y/Z)	RCH0000002 BBF 03.c3d
DataRate	CameraRate	NumFrames	NumMarkers	Units	OrigDataRate	OrigDataStartFrame	OrigNumFrames
100.0	100.0	17	23	mm	100.0	496	376
Frame#	Time	T2			T10			LASI			LPSI			RPSI			LANK			LMED			LTOE			RPAT			RANK			RMED			RHEE			RTOE			MAN			LPAT			RKNE			LKNE			RASI			LHEE			RTHI			LTHI			RTIB			LTIB			
		X1	Y1	Z1	X2	Y2	Z2	X3	Y3	Z3	X4	Y4	Z4	X5	Y5	Z5	X6	Y6	Z6	X7	Y7	Z7	X8	Y8	Z8	X9	Y9	Z9	X10	Y10	Z10	X11	Y11	Z11	X12	Y12	Z12	X13	Y13	Z13	X14	Y14	Z14	X15	Y15	Z15	X16	Y16	Z16	X17	Y17	Z17	X18	Y18	Z18	X19	Y19	Z19	X20	Y20	Z20	X21	Y21	Z21	X22	Y22	Z22	X23	Y23	Z23	

496	4.950	866.74065	49.65805	966.27553	886.88211	29.92985	779.35408	994.80124	83.29103	627.31603	880.49610	50.10913	685.34551	876.22029	-20.10090	698.60019	1002.54703	116.65150	70.55459	1004.52731	46.21892	81.86324	1052.72058	82.23278	69.07115	906.67255	-43.51079	355.91053	706.75335	-102.59957	104.47394	696.40498	-37.06941	126.03112	677.53369	-78.96621	156.90412	733.27430	-58.07450	75.05032	997.98930	60.55040	939.16628	1067.81193	33.42422	387.08547	851.94005	-96.25674	342.31907	1038.72176	95.71548	339.64214	978.80371	-91.70281	653.14386	961.43727	74.66290	94.69628	902.26677	-164.67007	442.97868	1003.01047	165.82998	459.31694	790.52025	-166.19098	240.53728	1025.14525	167.26836	231.23304	
497	4.960	876.31437	51.43285	965.46693	898.15729	29.10531	779.09568	1004.06714	84.54373	627.99346	890.61185	48.98770	686.56774	887.08401	-21.44172	698.40036	1002.55383	118.72951	69.83292	1004.06700	48.26776	81.65958	1052.46972	83.79984	68.17272	921.48911	-41.93096	353.18973	715.02433	-102.88012	106.64657	704.74009	-37.38634	128.41486	687.69988	-79.34358	160.14639	739.53937	-58.16299	75.76869	1007.80180	61.86158	939.41047	1072.23463	36.12938	385.66843	866.45557	-94.51197	339.63476	1042.16919	98.19161	338.93288	990.04779	-90.81589	650.99274	961.40225	77.15222	94.77394	915.61185	-163.21199	440.69283	1008.45902	167.95757	459.40802	803.65638	-165.20999	240.10851	1027.49305	169.60120	230.27782	
498	4.970	885.84392	52.88017	964.98736	909.23761	28.15029	779.18658	1012.87971	86.02106	628.99890	900.38864	47.82660	688.12722	897.71883	-22.81802	698.48559	1002.33002	120.87615	69.45070	1003.43524	50.39752	81.83939	1051.97695	85.47083	67.61916	936.78265	-40.12732	350.73011	724.12207	-103.12684	109.11948	713.91012	-37.63798	131.00224	698.66304	-79.61797	163.55247	746.70248	-58.29968	76.85196	1017.54616	62.99951	939.91542	1076.04706	39.22360	384.70742	881.55654	-92.62727	337.06366	1044.91557	100.96276	338.66133	1001.17135	-89.69879	649.01150	961.14932	79.70256	95.18776	929.43018	-161.56247	438.59154	1013.19536	170.38105	459.87821	817.51445	-164.11318	239.86573	1029.24756	172.17250	229.64664	
499	4.980	895.30780	53.98207	964.85110	920.06682	27.12174	779.62242	1021.25716	87.68787	630.28851	909.82480	46.70095	689.96684	908.08342	-24.14631	698.84902	1001.99615	122.95499	69.33327	1002.78519	52.48017	82.31331	1051.39174	87.14569	67.35230	952.46892	-38.14030	348.63772	734.04195	-103.34240	111.89671	723.93191	-37.81509	133.77040	710.36882	-79.76644	167.09482	754.85247	-58.50897	78.32831	1027.19848	63.95101	940.67103	1079.26494	42.55040	384.11854	897.15478	-90.63942	334.71123	1047.00484	103.91164	338.74448	1012.10920	-88.36911	647.27134	960.80511	82.15432	95.83142	943.61712	-159.75524	436.78246	1017.31230	172.99855	460.65023	831.99166	-162.92138	239.88615	1030.44060	174.85081	229.27198	
500	4.990	904.68657	54.73422	965.05987	930.59992	26.07933	780.38504	1029.23148	89.50388	631.80817	918.93118	45.68106	692.02246	918.14938	-25.34858	699.47506	1001.62278	124.83639	69.41030	1002.22372	54.39243	82.99342	1050.81654	88.72980	67.31073	968.46805	-36.02133	347.00931	744.77809	-103.52516	114.95770	734.81755	-37.90689	136.67722	722.76030	-79.76708	170.72866	764.07339	-58.80611	80.20031	1036.73767	64.70908	941.65986	1081.92698	45.94899	383.81144	913.15986	-88.59038	332.67659	1048.50272	106.91545	339.09314	1022.80707	-86.85234	645.83413	960.45252	84.35258	96.60967	958.05965	-157.83412	435.36451	1020.91760	175.70242	461.63789	846.98254	-161.65966	240.23618	1031.09498	177.50070	229.08918	
501	5.000	913.96370	55.14601	965.60261	940.80425	25.08107	781.44347	1036.84453	91.42668	633.49763	927.72827	44.82612	694.22707	927.90151	-26.35896	700.34000	1001.24372	126.41300	69.62318	1001.81744	56.03020	83.80187	1050.31400	90.14375	67.43605	984.70771	-33.83077	345.92604	756.32621	-103.66634	118.25425	746.57507	-37.89957	139.66155	735.78423	-79.59862	174.39113	774.43940	-59.19253	82.44168	1046.14613	65.27305	942.85720	1084.09487	49.27024	383.70097	929.48269	-86.52542	331.04600	1049.49613	109.85706	339.62274	1033.22407	-85.17975	644.74758	960.14020	86.16671	97.44712	972.64215	-155.85094	434.42032	1024.12610	178.38953	462.75601	862.38503	-160.35512	240.96407	1031.23873	179.99738	229.04345	
502	5.010	923.12613	55.23980	966.45598	950.65975	24.17912	782.75587	1044.14388	93.41460	635.29478	936.24292	44.17926	696.51442	937.33723	-27.12896	701.41284	1000.87076	127.61189	69.92884	1001.60074	57.32027	84.67666	1049.91631	91.33083	67.67715	1001.12551	-31.63516	345.44843	768.68538	-103.74852	121.71082	759.20898	-37.77565	142.64582	749.39624	-79.24073	178.00293	786.00962	-59.65301	84.99739	1055.41031	65.64830	944.23152	1085.85113	52.39101	383.71525	946.03916	-84.49108	329.88745	1050.09000	112.63548	340.26114	1043.33411	-83.38590	644.04153	959.89344	87.50648	98.29295	987.25291	-153.86256	434.01004	1027.05165	180.97041	463.92841	878.10622	-159.03454	242.09415	1030.91734	182.23963	229.09364	
503	5.020	932.16468	55.04930	967.58555	960.15841	23.41632	784.27190	1051.17892	95.42929	637.13956	944.50509	43.76445	698.82190	946.46515	-27.63069	702.65625	1000.50679	128.40181	70.30013	1001.58411	58.22763	85.57405	1049.63502	92.26147	67.99255	1017.67045	-29.50376	345.61322	781.85852	-103.74590	125.22827	772.72029	-37.51436	145.54119	763.56438	-78.67473	181.47231	798.82372	-60.15538	87.78719	1064.52098	65.84564	945.74525	1087.29495	55.22455	383.79949	962.75356	-82.53280	329.24698	1050.40160	115.17435	340.95265	1053.12613	-81.50595	643.72561	959.72409	88.33242	99.12114	1001.79083	-151.92713	434.16731	1029.79987	183.37625	465.09338	894.06712	-157.72203	243.62344	1030.20128	184.15931	229.21289	
504	5.030	941.07423	54.61723	968.94770	969.30320	22.82367	785.93551	1057.99747	97.43761	638.97716	952.54490	43.58574	701.09257	955.30296	-27.85768	704.02768	1000.15553	128.79465	70.72315	1001.76169	58.75765	86.46789	1049.46955	92.93419	68.35074	1034.30341	-27.50414	346.43234	795.85134	-103.62625	128.69125	787.10635	-37.09311	148.25442	778.27059	-77.88502	184.70141	812.89870	-60.65309	90.71259	1073.47338	65.88040	947.35589	1088.53608	57.72550	383.91579	979.56173	-80.69246	329.14699	1050.55312	117.42715	341.65854	1062.60321	-79.57337	643.78868	959.63821	88.65896	99.92701	1016.17177	-150.09991	434.89775	1032.46239	185.56284	466.20614	910.20609	-156.43716	245.52141	1029.18747	185.72635	229.38659	
505	5.040	949.85371	53.99250	970.49186	978.10651	22.41893	787.68784	1064.64340	99.41267	640.76025	960.39037	43.62855	703.27627	963.87494	-27.82362	705.48056	999.82678	128.84120	71.19296	1002.11708	58.95290	87.34653	1049.41368	93.37316	68.72917	1050.99654	-25.69722	347.89414	810.67021	-103.35442	131.97816	802.36041	-36.48983	150.69580	793.50993	-76.86053	187.59406	828.22751	-61.09028	93.66604	1082.26720	65.77127	949.01749	1089.68738	59.88909	384.04006	996.41349	-79.00569	329.58659	1050.66357	119.37864	342.35466	1071.78067	-77.61814	644.19988	959.64078	88.55004	100.72101	1030.33399	-148.42877	436.18001	1035.11334	187.51119	467.23858	926.48065	-155.19359	247.73302	1027.99459	186.94864	229.60870	
506	5.050	958.50592	53.22712	972.16317	986.58838	22.20642	789.47010	1071.15512	101.33414	642.45032	968.06584	43.86283	705.33026	972.20942	-27.55908	706.96575	999.53758	128.62215	71.70867	1002.62769	58.88534	88.20848	1049.45965	93.62285	69.11231	1067.73163	-24.13201	349.96651	826.31929	-102.89675	134.97251	818.47132	-35.68590	152.78684	809.28814	-75.59623	190.06386	844.77954	-61.40873	96.54132	1090.90632	65.53903	950.68228	1090.85673	61.74502	384.15755	1013.27416	-77.49927	330.54394	1050.84107	121.04234	343.02766	1080.68340	-75.66560	644.91119	959.73772	88.10824	101.52160	1044.24179	-146.95014	437.96920	1037.80817	189.22534	468.17695	942.86749	-153.99846	250.18470	1026.75350	187.86726	229.87743	
507	5.060	967.03724	52.37310	973.90520	994.77464	22.17784	791.22622	1077.56512	103.18778	644.01810	975.59135	44.24733	707.21933	980.33630	-27.10714	708.43320	999.30996	128.23595	72.26923	1003.26756	58.64547	89.05770	1049.60003	93.74082	69.48961	1084.49756	-22.84075	352.60164	842.79781	-102.22580	137.57393	835.42342	-34.66903	154.46676	825.61803	-74.09427	192.04163	862.50304	-61.55536	99.24350	1099.39856	65.20523	952.30247	1092.13922	63.34761	384.25836	1030.12473	-76.18882	331.98007	1051.17624	122.45492	343.67076	1089.34281	-73.73609	645.86122	959.93571	87.45945	102.34834	1057.88683	-145.68574	440.20205	1040.58487	190.72770	469.01835	959.36100	-152.85246	252.79253	1025.59488	188.54795	230.19133	
508	5.070	975.45725	51.47951	975.66266	1002.69517	22.31394	792.90520	1083.90020	104.96438	645.44341	982.98276	44.73450	708.91581	988.28499	-26.51840	709.83372	999.16697	127.78560	72.87054	1004.00924	58.32999	89.89951	1049.82806	93.78976	69.85354	1101.28704	-21.83516	355.74136	860.09806	-101.32457	139.70722	853.19685	-33.43591	155.69671	842.51574	-72.36475	193.48075	881.32906	-61.48923	101.69709	1107.75521	64.79092	953.83212	1093.61060	64.76428	384.33395	1046.96051	-75.07712	333.84382	1051.73757	123.66844	344.28017	1097.79364	-71.84523	646.97981	960.24080	86.73581	103.21637	1071.28660	-144.64059	442.80327	1043.46685	192.05317	469.76682	975.97056	-151.75051	255.47133	1024.63640	189.07031	230.54634	
509	5.080	983.77839	50.58996	977.38382	1010.38226	22.58680	794.46298	1090.18229	106.65848	646.71435	990.25247	45.27527	710.39941	996.08294	-25.84596	711.12087	999.12805	127.36644	73.50420	1004.82510	58.03018	90.73774	1050.13694	93.82993	70.19821	1118.09294	-21.10444	359.32271	878.20460	-100.18963	141.32820	871.76815	-31.99383	156.46145	859.99714	-70.42612	194.35992	901.17663	-61.18669	103.85139	1115.99064	64.31552	955.22891	1095.32272	66.06426	384.37515	1063.78822	-74.15326	336.07705	1052.56903	124.74191	344.85266	1106.07121	-70.00463	648.19291	960.65657	86.05965	104.13306	1084.47989	-143.80285	445.69206	1046.46661	193.24281	470.42986	992.71701	-150.68280	258.14320	1023.97159	189.51674	230.93440	
510	5.090	992.01546	49.74051	979.02269	1017.86922	22.96241	795.86395	1096.42957	108.26691	647.82638	997.41073	45.82313	711.65711	1003.75479	-25.14115	712.25293	999.20542	127.05654	74.15775	1005.68840	57.82259	91.57321	1050.51886	93.91305	70.51860	1134.90441	-20.61551	363.28266	897.09493	-98.83265	142.42552	891.11088	-30.36148	156.76838	878.07522	-68.30524	194.68281	921.95831	-60.64394	105.68249	1124.12175	63.79592	956.45573	1097.30173	67.30933	384.37171	1080.62162	-73.39292	338.61959	1053.69001	125.73350	345.38443	1114.20912	-68.22288	649.42748	961.18258	85.53084	105.09683	1097.51970	-143.14522	448.78808	1049.58954	194.33807	471.01570	1009.62878	-149.63615	260.74442	1023.66213	189.96248	231.34344	
511	5.100	1000.18533	48.95829	980.54054	1025.18925	23.40339	797.08183	1102.65765	109.78763	648.78119	1004.46708	46.33739	712.68289	1011.32216	-24.45004	713.19454	999.40184	126.91089	74.81607	1006.57434	57.76295	92.40350	1050.96433	94.07827	70.81034	1151.70350	-20.31557	367.56150	916.74148	-97.28018	143.01842	911.19624	-28.56838	156.64420	896.75830	-66.03713	194.47491	943.58573	-59.87642	107.19194	1132.16753	63.24573	957.48197	1099.54888	68.54766	384.31300	1097.47604	-72.75982	341.41322	1055.09733	126.69433	345.87119	1122.23783	-66.50657	650.61581	961.81338	85.21904	106.09798	1110.46431	-142.62798	452.01607	1052.83695	195.37618	471.53177	1026.73807	-148.59540	263.22937	1023.73453	190.46829	231.75869	
512	5.110	1008.30647	48.26067	981.90706	1032.37459	23.87145	798.09999	1108.88064	111.21886	649.58551	1011.43184	46.78515	713.47732	1018.80401	-23.81116	713.91812	999.71041	126.95958	75.46338	1007.46106	57.88405	93.22372	1051.46189	94.35039	71.06988	1168.46228	-20.13665	372.10444	937.11415	-95.57162	143.15104	931.99312	-26.65330	156.12995	916.04912	-63.66440	193.77808	965.97412	-58.91546	108.40248	1140.14856	62.67494	958.28448	1102.04397	69.81097	384.18937	1114.36262	-72.20825	344.40431	1056.76895	127.66450	346.30898	1130.18399	-64.86113	651.69906	962.53844	85.16129	107.12100	1123.36806	-142.20311	455.30877	1056.20807	196.38709	471.98406	1044.07732	-147.54484	265.57118	1024.18140	191.07632	232.16473	
